<?xml version="1.0" encoding="UTF-8" standalone="no"?>
<!DOCTYPE svg PUBLIC "-//W3C//DTD SVG 1.1//EN" "http://www.w3.org/Graphics/SVG/1.1/DTD/svg11.dtd">
<!-- Created with Vectornator (http://vectornator.io/) -->
<svg height="100%" stroke-miterlimit="10" style="fill-rule:nonzero;clip-rule:evenodd;stroke-linecap:round;stroke-linejoin:round;" version="1.1" viewBox="0 0 302 340" width="100%" xml:space="preserve" xmlns="http://www.w3.org/2000/svg" xmlns:vectornator="http://vectornator.io" xmlns:xlink="http://www.w3.org/1999/xlink">
<defs/>
<clipPath id="ArtboardFrame">
<rect height="340" width="302" x="0" y="0"/>
</clipPath>
<g clip-path="url(#ArtboardFrame)" id="Layer-1" vectornator:layerName="Layer 1">
<path d="M125.5 5C121.167 7.66667 117.833 11.1667 115.5 15.5C113.167 19.8333 113.833 29.8333 117.5 45.5C119.333 53.3333 121.167 61.1667 123 69C117.833 67.6667 112.667 66.3333 107.5 65C97.1667 62.3333 86.3333 61.3333 75 62C63.6667 62.6667 54 65 46 69C38 73 31.6667 77.1667 27 81.5C22.3333 85.8333 18.5 90.1667 15.5 94.5C12.5 98.8333 9.33333 106.333 6 117C2.66667 127.667 1 138.833 1 150.5C1 162.167 2.16667 174.167 4.5 186.5C6.83333 198.833 10.5 212.5 15.5 227.5C20.5 242.5 25.6667 255.833 31 267.5C36.3333 279.167 42.1667 289.667 48.5 299C54.8333 308.333 61.1667 315.833 67.5 321.5C73.8333 327.167 78.8333 331 82.5 333C86.1667 335 90.8333 336.833 96.5 338.5C102.167 340.167 108.667 341 116 341C123.333 341 130.333 339.667 137 337C143.667 334.333 147 331.644 151 328.311C153.269 326.421 157.223 321.814 157.223 321.814C157.223 321.814 162.913 326.201 164.5 327.5C168.167 330.5 173.167 333.333 179.5 336C185.833 338.667 194.5 340 205.5 340C216.5 340 224.833 338.833 230.5 336.5C236.167 334.167 240.667 331.833 244 329.5C247.333 327.167 251 324 255 320C259 316 263.667 309.833 269 301.5C271.667 297.333 274.333 293.167 277 289C272.667 286.333 268.333 283.667 264 281C255.333 275.667 248.5 270.167 243.5 264.5C238.5 258.833 234.333 253 231 247C227.667 241 224.833 233 222.5 223C220.167 213 219.333 202.667 220 192C220.667 181.333 221.833 173.333 223.5 168C225.167 162.667 227.833 156.667 231.5 150C235.167 143.333 240.5 136.333 247.5 129C254.5 121.667 261.167 116 267.5 112C273.833 108 281.333 104.667 290 102C294.333 100.667 298.667 99.3333 303 98C300.833 94.6667 298.667 91.3333 296.5 88C292.167 81.3333 286.333 75.5 279 70.5C271.667 65.5 265.167 62.3333 259.5 61C253.833 59.6667 245.5 59.3333 234.5 60C229 60.3333 223.5 60.6667 218 61C218.667 58.6667 219.333 56.3333 220 54C221.333 49.3333 222 43.5 222 36.5C222 33 222 29.5 222 26C219 26.1667 216 26.3333 213 26.5C207 26.8333 200.167 28 192.5 30C188.667 31 184.833 32 181 33C181 30.6667 181 28.3333 181 26C181 21.3333 180 18.1667 178 16.5C176 14.8333 171 12 163 8C155 4 147.833 1.83333 141.5 1.5C135.167 1.16667 129.833 2.33333 125.5 5Z" fill="#fff" fill-rule="nonzero" opacity="1" stroke="none" vectornator:layerName="Curve 1"/>
</g>
</svg>
